<?xml version="1.0" encoding="UTF-8" standalone="no"?><!-- Generator: Gravit.io --><svg xmlns="http://www.w3.org/2000/svg" xmlns:xlink="http://www.w3.org/1999/xlink" style="isolation:isolate" viewBox="0 0 427.325 60.35" width="427.325pt" height="60.35pt"><defs><clipPath id="_clipPath_Z47g5wMwT4ABs4IlKQ1jenZW9V6t136Y"><rect width="427.325" height="60.35"/></clipPath></defs><g clip-path="url(#_clipPath_Z47g5wMwT4ABs4IlKQ1jenZW9V6t136Y)"><clipPath id="_clipPath_zd5u5jedG2RDB08Fwm8FsfLGJUPLcvO8"><rect x="0" y="0" width="427.325" height="60.35" transform="matrix(1,0,0,1,0,0)" fill="rgb(255,255,255)"/></clipPath><g clip-path="url(#_clipPath_zd5u5jedG2RDB08Fwm8FsfLGJUPLcvO8)"><g><g><g><path d=" M 80.51 60.35 L 0 60.35 L 2.69 59.16 L 2.96 32.44 L 0.94 30.79 L 21.72 26.67 L 20.35 24.2 L 25.56 22.37 L 25.56 14.96 L 24.19 10.38 L 39.1 4.43 L 38.84 0.95 L 40.25 0 L 41.66 0.95 L 41.41 4.43 L 56.32 10.38 L 54.94 14.96 L 54.94 22.37 L 60.16 24.2 L 58.79 26.67 L 79.57 30.79 L 77.55 32.44 L 77.82 59.16 L 80.51 60.35 L 80.51 60.35 L 80.51 60.35 Z " fill="rgb(46,46,46)"/><g><path d=" M 96.456 35.586 L 96.456 50.54 L 92.389 50.54 L 92.389 15.561 L 111.889 15.561 L 111.889 19.173 L 96.456 19.173 L 96.456 31.974 L 110.955 31.974 L 110.955 35.586 L 96.456 35.586 L 96.456 35.586 L 96.456 35.586 L 96.456 35.586 L 96.456 35.586 L 96.456 35.586 Z  M 139.889 46.903 L 139.889 50.54 L 120.389 50.54 L 120.389 15.561 L 139.889 15.561 L 139.889 19.173 L 124.456 19.173 L 124.456 30.442 L 138.955 30.442 L 138.955 34.031 L 124.456 34.031 L 124.456 46.903 L 139.889 46.903 L 139.889 46.903 L 139.889 46.903 L 139.889 46.903 L 139.889 46.903 L 139.889 46.903 Z  M 170.128 41.233 L 170.128 41.233 L 170.128 41.233 Q 170.128 45.851 166.778 48.435 L 166.778 48.435 L 166.778 48.435 Q 163.429 51.019 157.686 51.019 L 157.686 51.019 L 157.686 51.019 Q 151.466 51.019 148.116 49.415 L 148.116 49.415 L 148.116 45.492 L 148.116 45.492 Q 150.269 46.401 152.806 46.927 L 152.806 46.927 L 152.806 46.927 Q 155.342 47.454 157.83 47.454 L 157.83 47.454 L 157.83 47.454 Q 161.897 47.454 163.955 45.91 L 163.955 45.91 L 163.955 45.91 Q 166.013 44.367 166.013 41.616 L 166.013 41.616 L 166.013 41.616 Q 166.013 39.797 165.283 38.637 L 165.283 38.637 L 165.283 38.637 Q 164.553 37.477 162.842 36.496 L 162.842 36.496 L 162.842 36.496 Q 161.132 35.515 157.639 34.27 L 157.639 34.27 L 157.639 34.27 Q 152.758 32.524 150.664 30.131 L 150.664 30.131 L 150.664 30.131 Q 148.571 27.739 148.571 23.887 L 148.571 23.887 L 148.571 23.887 Q 148.571 19.843 151.609 17.451 L 151.609 17.451 L 151.609 17.451 Q 154.648 15.058 159.648 15.058 L 159.648 15.058 L 159.648 15.058 Q 164.864 15.058 169.243 16.972 L 169.243 16.972 L 167.975 20.513 L 167.975 20.513 Q 163.644 18.695 159.553 18.695 L 159.553 18.695 L 159.553 18.695 Q 156.323 18.695 154.504 20.082 L 154.504 20.082 L 154.504 20.082 Q 152.686 21.47 152.686 23.935 L 152.686 23.935 L 152.686 23.935 Q 152.686 25.753 153.356 26.913 L 153.356 26.913 L 153.356 26.913 Q 154.026 28.074 155.617 29.043 L 155.617 29.043 L 155.617 29.043 Q 157.208 30.012 160.486 31.184 L 160.486 31.184 L 160.486 31.184 Q 165.989 33.146 168.058 35.395 L 168.058 35.395 L 168.058 35.395 Q 170.128 37.644 170.128 41.233 L 170.128 41.233 L 170.128 41.233 L 170.128 41.233 L 170.128 41.233 Z  M 190.156 19.173 L 190.156 50.54 L 186.088 50.54 L 186.088 19.173 L 175.011 19.173 L 175.011 15.561 L 201.233 15.561 L 201.233 19.173 L 190.156 19.173 L 190.156 19.173 L 190.156 19.173 L 190.156 19.173 Z  M 214.817 35.754 L 226.134 35.754 L 222.067 24.915 L 222.067 24.915 Q 221.277 22.858 220.44 19.867 L 220.44 19.867 L 220.44 19.867 Q 219.914 22.164 218.933 24.915 L 218.933 24.915 L 214.817 35.754 L 214.817 35.754 L 214.817 35.754 L 214.817 35.754 Z  M 235.968 50.54 L 231.757 50.54 L 227.402 39.415 L 213.382 39.415 L 209.075 50.54 L 204.96 50.54 L 218.789 15.417 L 222.21 15.417 L 235.968 50.54 L 235.968 50.54 L 235.968 50.54 L 235.968 50.54 Z  M 271.472 15.561 L 271.472 50.54 L 266.831 50.54 L 247.714 21.183 L 247.523 21.183 L 247.523 21.183 Q 247.905 26.351 247.905 30.658 L 247.905 30.658 L 247.905 50.54 L 244.149 50.54 L 244.149 15.561 L 248.743 15.561 L 267.812 44.798 L 268.003 44.798 L 268.003 44.798 Q 267.955 44.152 267.788 40.647 L 267.788 40.647 L 267.788 40.647 Q 267.62 37.142 267.668 35.634 L 267.668 35.634 L 267.668 15.561 L 271.472 15.561 L 271.472 15.561 L 271.472 15.561 Z  M 291.857 19.173 L 291.857 50.54 L 287.79 50.54 L 287.79 19.173 L 276.712 19.173 L 276.712 15.561 L 302.935 15.561 L 302.935 19.173 L 291.857 19.173 L 291.857 19.173 L 291.857 19.173 Z  M 310.687 33.002 L 310.687 33.002 L 310.687 33.002 Q 310.687 40.108 313.713 43.781 L 313.713 43.781 L 313.713 43.781 Q 316.74 47.454 322.506 47.454 L 322.506 47.454 L 322.506 47.454 Q 328.32 47.454 331.287 43.793 L 331.287 43.793 L 331.287 43.793 Q 334.254 40.132 334.254 33.002 L 334.254 33.002 L 334.254 33.002 Q 334.254 25.944 331.299 22.296 L 331.299 22.296 L 331.299 22.296 Q 328.344 18.647 322.554 18.647 L 322.554 18.647 L 322.554 18.647 Q 316.74 18.647 313.713 22.32 L 313.713 22.32 L 313.713 22.32 Q 310.687 25.992 310.687 33.002 L 310.687 33.002 L 310.687 33.002 Z  M 373.683 15.561 L 373.683 50.54 L 369.042 50.54 L 349.925 21.183 L 349.734 21.183 L 349.734 21.183 Q 350.116 26.351 350.116 30.658 L 350.116 30.658 L 350.116 50.54 L 346.36 50.54 L 346.36 15.561 L 350.954 15.561 L 370.023 44.798 L 370.214 44.798 L 370.214 44.798 Q 370.166 44.152 369.999 40.647 L 369.999 40.647 L 369.999 40.647 Q 369.831 37.142 369.879 35.634 L 369.879 35.634 L 369.879 15.561 L 373.683 15.561 L 373.683 15.561 L 373.683 15.561 Z  M 387.369 50.54 L 383.301 50.54 L 383.301 15.561 L 387.369 15.561 L 387.369 50.54 L 387.369 50.54 L 387.369 50.54 Z  M 399.451 33.002 L 399.451 33.002 L 399.451 33.002 Q 399.451 40.108 402.478 43.781 L 402.478 43.781 L 402.478 43.781 Q 405.505 47.454 411.271 47.454 L 411.271 47.454 L 411.271 47.454 Q 417.085 47.454 420.051 43.793 L 420.051 43.793 L 420.051 43.793 Q 423.018 40.132 423.018 33.002 L 423.018 33.002 L 423.018 33.002 Q 423.018 25.944 420.063 22.296 L 420.063 22.296 L 420.063 22.296 Q 417.109 18.647 411.319 18.647 L 411.319 18.647 L 411.319 18.647 Q 405.505 18.647 402.478 22.32 L 402.478 22.32 L 402.478 22.32 Q 399.451 25.992 399.451 33.002 L 399.451 33.002 L 399.451 33.002 Z  M 338.56 33.002 L 338.56 33.002 L 338.56 33.002 Q 338.56 41.4 334.313 46.209 L 334.313 46.209 L 334.313 46.209 Q 330.067 51.019 322.506 51.019 L 322.506 51.019 L 322.506 51.019 Q 314.778 51.019 310.579 46.293 L 310.579 46.293 L 310.579 46.293 Q 306.38 41.568 306.38 32.955 L 306.38 32.955 L 306.38 32.955 Q 306.38 24.413 310.591 19.712 L 310.591 19.712 L 310.591 19.712 Q 314.802 15.01 322.554 15.01 L 322.554 15.01 L 322.554 15.01 Q 330.09 15.01 334.325 19.795 L 334.325 19.795 L 334.325 19.795 Q 338.56 24.581 338.56 33.002 L 338.56 33.002 L 338.56 33.002 Z  M 427.325 33.002 L 427.325 33.002 L 427.325 33.002 Q 427.325 41.4 423.078 46.209 L 423.078 46.209 L 423.078 46.209 Q 418.831 51.019 411.271 51.019 L 411.271 51.019 L 411.271 51.019 Q 403.543 51.019 399.344 46.293 L 399.344 46.293 L 399.344 46.293 Q 395.145 41.568 395.145 32.955 L 395.145 32.955 L 395.145 32.955 Q 395.145 24.413 399.356 19.712 L 399.356 19.712 L 399.356 19.712 Q 403.567 15.01 411.319 15.01 L 411.319 15.01 L 411.319 15.01 Q 418.855 15.01 423.09 19.795 L 423.09 19.795 L 423.09 19.795 Q 427.325 24.581 427.325 33.002 L 427.325 33.002 L 427.325 33.002 Z " fill-rule="evenodd" fill="rgb(46,46,46)"/></g></g></g></g></g></g></svg>